{"title":"Dracul Untold No Cinavia","uid":12135484,"size":1546432438,"categoryP":"video","categoryS":"movies","magnet":"?xt=urn:btih:24a74c636e6e1033d2e80faf81a085a0b794af49&amp;dn=Dracul+Untold+No+Cinavia&amp;tr=udp%3A%2F%2Ftracker.openbittorrent.com%3A80&amp;tr=udp%3A%2F%2Fopen.demonii.com%3A1337&amp;tr=udp%3A%2F%2Ftracker.coppersurfer.tk%3A6969&amp;tr=udp%3A%2F%2Fexodus.desync.com%3A6969","seeders":0,"leechers":0,"uploader":"Yoyimas","files":1,"time":1437167311,"description":"As his kingdom is being threatened by the Turks, young prince Vlad Tepes must become a monster feared by his own people in order to obtain the power needed to protect his own family, and the families of his kingdom.\n &lt;a href=&quot;\nhttp://g51i.imgup.net/vlcsnap-200f70.png&quot; rel=&quot;nofollow&quot; target=&quot;_NEW&quot;&gt;\nhttp://g51i.imgup.net/vlcsnap-200f70.png&lt;/a&gt;\n &lt;a href=&quot;\nhttp://k56i.imgup.net/vlcsnap-20a927.png&quot; rel=&quot;nofollow&quot; target=&quot;_NEW&quot;&gt;\nhttp://k56i.imgup.net/vlcsnap-20a927.png&lt;/a&gt;\n &lt;a href=&quot;\nhttp://e57i.imgup.net/vlcsnap-208b37.png&quot; rel=&quot;nofollow&quot; target=&quot;_NEW&quot;&gt;\nhttp://e57i.imgup.net/vlcsnap-208b37.png&lt;/a&gt;\n &lt;a href=&quot;\nhttp://m36i.imgup.net/7cef06a73c768c.gif&quot; rel=&quot;nofollow&quot; target=&quot;_NEW&quot;&gt;\nhttp://m36i.imgup.net/7cef06a73c768c.gif&lt;/a&gt;\n\nGeneral\nComplete name                            : Dracula.Untold.2014.BRRip.XviD.AC3.No cinavia.phoenix.avi\nFormat                                   : AVI\nFormat/Info                              : Audio Video Interleave\nFormat profile                           : OpenDML\nFile size                                : 1.44 GiB\nDuration                                 : 1h 32mn\nOverall bit rate                         : 2 238 Kbps\nWriting application                      : Lavf55.33.100\n\nVideo\nID                                       : 0\nFormat                                   : MPEG-4 Visual\nFormat profile                           : Advanced Simple@L5\nFormat settings, BVOP                    : 2\nFormat settings, QPel                    : No\nFormat settings, GMC                     : No warppoints\nFormat settings, Matrix                  : Default (H.263)\nMuxing mode                              : Packed bitstream\nCodec ID                                 : XVID\nCodec ID/Hint                            : XviD\nDuration                                 : 1h 32mn\nBit rate                                 : 1 778 Kbps\nWidth                                    : 720 pixels\nHeight                                   : 304 pixels\nDisplay aspect ratio                     : 2.35:1\nFrame rate                               : 23.976 fps\nColor space                              : YUV\nChroma subsampling                       : 4:2:0\nBit depth                                : 8 bits\nScan type                                : Progressive\nCompression mode                         : Lossy\nBits/(Pixel*Frame)                       : 0.339\nStream size                              : 1.14 GiB (79%)\nWriting library                          : XviD 64\n\nAudio\nID                                       : 1\nFormat                                   : AC-3\nFormat/Info                              : Audio Coding 3\nMode extension                           : CM (complete main)\nFormat settings, Endianness              : Big\nCodec ID                                 : 2000\nDuration                                 : 1h 32mn\nBit rate mode                            : Constant\nBit rate                                 : 448 Kbps\nChannel(s)                               : 2 channels\nChannel positions                        : Front: L R\nSampling rate                            : 48.0 KHz\nBit depth                                : 16 bits\nCompression mode                         : Lossy\nStream size                              : 295 MiB (20%)\nAlignment                                : Aligned on interleaves\nInterleave, duration                     : 32 ms (0.77 video frame)\n\nIf you like my uploads please say so and I will submit more like this one. And please seed","torrent":{"xt":"urn:btih:24a74c636e6e1033d2e80faf81a085a0b794af49","amp;dn":"Dracul+Untold+No+Cinavia","amp;tr":["udp%3A%2F%2Ftracker.openbittorrent.com%3A80","udp%3A%2F%2Fopen.demonii.com%3A1337","udp%3A%2F%2Ftracker.coppersurfer.tk%3A6969","udp%3A%2F%2Fexodus.desync.com%3A6969"],"infoHash":"24a74c636e6e1033d2e80faf81a085a0b794af49","infoHashBuffer":{"type":"Buffer","data":[36,167,76,99,110,110,16,51,210,232,15,175,129,160,133,160,183,148,175,73]},"announce":[],"urlList":[]}}